<svg id="SvgjsSvg1001" width="288" height="288" xmlns="http://www.w3.org/2000/svg" version="1.1" xmlns:xlink="http://www.w3.org/1999/xlink" xmlns:svgjs="http://svgjs.com/svgjs"><defs id="SvgjsDefs1002"></defs><g id="SvgjsG1008" transform="matrix(1,0,0,1,0,0)"><svg xmlns="http://www.w3.org/2000/svg" width="288" height="288" viewBox="0 0 24 24"><path fill="none" d="M0,0H24V24H0Z" data-name="Path 3674"></path><path fill="#ffffff" d="M7.58,4.08,6.15,2.65A10.425,10.425,0,0,0,2.03,10.5h2A8.446,8.446,0,0,1,7.58,4.08ZM19.97,10.5h2a10.489,10.489,0,0,0-4.12-7.85L16.43,4.08A8.5,8.5,0,0,1,19.97,10.5ZM18,11c0-3.07-1.64-5.64-4.5-6.32V4a1.5,1.5,0,0,0-3,0v.68C7.63,5.36,6,7.92,6,11v5L4,18v1H20V18l-2-2ZM12,22a1.752,1.752,0,0,0,.4-.04,2.029,2.029,0,0,0,1.44-1.18,2.008,2.008,0,0,0,.15-.78h-4A2.014,2.014,0,0,0,12,22Z" data-name="Path 3675" class="color3fd28b svgShape"></path></svg></g></svg>